<?xml version="1.0" encoding="UTF-8"?>
<svg width="64px" height="64px" viewBox="0 0 150 150" version="1.1" xmlns="http://www.w3.org/2000/svg" xmlns:xlink="http://www.w3.org/1999/xlink">
    <!-- Generator: Sketch 53 (72520) - https://sketchapp.com -->
    <title>150/女</title>
    <desc>Created with Sketch.</desc>
    <defs>
        <rect id="path-1" x="0" y="0" width="150" height="150"></rect>
        <path d="M17.6951022,1.0125234e-13 L38.2700513,1.0125234e-13 C38.2700513,1.0125234e-13 38.1164551,4.82936509 39.494133,10.1028026 C40.4887291,13.9098903 48.1172219,19.373272 52.2586823,20.8541454 C53.8538201,21.4245232 55.4777145,21.9878734 55.4777145,21.9878734 C55.4777145,21.9878734 38.2700513,37.5 28.5474777,37.5 C18.8249042,37.5 -7.10542736e-15,22.2834361 -7.10542736e-15,22.2834361 C-7.10542736e-15,22.2834361 1.65740288,21.6424964 4.00753021,20.8428157 C8.74270522,19.231572 15.5145645,15.1631893 16.6139603,10.3738368 C17.8345766,5.05640504 17.6951022,1.0125234e-13 17.6951022,1.0125234e-13 Z" id="path-3"></path>
        <path d="M0.130878515,9.52026932 C10.7682302,3.94299158 18.8504282,0.908808717 24.3774726,0.417720733 C29.9045171,-0.0733672501 37.5921154,2.42765548 47.4402678,7.92078891 C48.0944071,26.3800902 48.4214768,36.6871891 48.4214768,38.8420855 C48.4214768,42.0744301 45.8558278,49.3732387 42.5122805,54.1370327 C39.1687331,58.9008266 29.9646428,64.5517666 24.0790529,64.5517666 C18.1934631,64.5517666 9.9017964,58.5591349 6.36298846,54.1370327 C2.82418053,49.7149305 0.130878515,43.9067172 0.130878515,40.629802 C0.130878515,38.4451919 0.130878515,28.0753476 0.130878515,9.52026932 Z" id="path-5"></path>
    </defs>
    <g id="150/女" stroke="none" stroke-width="1" fill="none" fill-rule="evenodd">
        <path d="M75.0740051,146.875 C77.6628399,146.875 79.7615051,144.776335 79.7615051,142.1875 C79.7615051,139.598665 77.6628399,137.5 75.0740051,137.5 C72.4851704,137.5 70.3865051,139.598665 70.3865051,142.1875 C70.3865051,144.776335 72.4851704,146.875 75.0740051,146.875 Z" id="Oval" fill="#FFFFFF"></path>
        <mask id="mask-2" fill="white">
            <use xlink:href="#path-1"></use>
        </mask>
        <use id="Mask-Copy-2" fill="#FFF3EF" xlink:href="#path-1"></use>
        <path d="M46.4499753,37.3351211 C40.2048418,49.7989645 37.7145753,64.3568728 38.979176,81.008846 C40.2929904,98.3088531 34.0935047,110.761461 28.6952972,119.184875 C25.0964923,124.800485 22.9848437,130.645149 22.3603516,136.718866 L64.9975633,105.8415 L69.7009154,90.5657132 L60.1122076,58.247548 L46.4499753,37.3351211 Z" id="Path-19-Copy-2" fill="#4F2E2C" mask="url(#mask-2)"></path>
        <path d="M104.34144,32.5760581 C110.450836,42.402145 113.505534,55.4264289 113.505534,71.6489099 C113.505534,84.8334167 112.198257,94.2901611 115.573889,104.149437 C118.949521,114.008714 125.664902,121.860504 128.093817,136.718866 C115.96962,137.990556 81.5871404,107.714259 81.5871404,107.714259 C81.5871404,107.714259 81.2702923,100.746925 80.6365961,86.8122575 L101.455138,55.0833254 L104.34144,32.5760581 Z" id="Path-18-Copy-2" fill="#4F2E2C" mask="url(#mask-2)"></path>
        <path d="M18.75,150 C18.75,121.875 48.9429474,112.248611 68.0587769,112.248611 L80.3199768,112.248611 C101.005619,112.248611 131.25,121.875 131.25,150 L18.75,150 Z" id="Combined-Shape-Copy-2" fill="#FF885A" mask="url(#mask-2)"></path>
        <g id="Rectangle-Copy-2" mask="url(#mask-2)">
            <g transform="translate(46.452522, 93.317455)">
                <mask id="mask-4" fill="white">
                    <use xlink:href="#path-3"></use>
                </mask>
                <use id="Mask" stroke="none" fill="#FFC1A7" fill-rule="evenodd" xlink:href="#path-3"></use>
                <path d="M16.2340164,0.432545024 L40.1288986,0.432545024 L40.1288986,5.58887132 C36.1626307,10.68785 32.3021571,13.2373393 28.5474777,13.2373393 C24.7927984,13.2373393 20.6883113,10.68785 16.2340164,5.58887132 L16.2340164,0.432545024 Z" id="Rectangle" stroke="none" fill="#FAB497" fill-rule="evenodd" mask="url(#mask-4)"></path>
            </g>
        </g>
        <path d="M75.0740051,143.75 C77.6628399,143.75 79.7615051,141.651335 79.7615051,139.0625 C79.7615051,136.473665 77.6628399,134.375 75.0740051,134.375 C72.4851704,134.375 70.3865051,136.473665 70.3865051,139.0625 C70.3865051,141.651335 72.4851704,143.75 75.0740051,143.75 Z" id="Oval-Copy-2" fill="#FFFFFF" mask="url(#mask-2)"></path>
        <path d="M44.9882018,59.3471462 C44.9882018,59.3471462 50.4277037,58.451229 51.8136831,59.0584107 C51.8136831,59.0584107 56.1409349,60.2975187 55.8685449,66.3847907 C55.5961549,72.4720626 51.549315,77.7820031 48.7186941,79.5926743 C45.8880733,81.4033456 43.297909,81.4156477 41.9973384,81.4156477 L44.9882018,59.3471462 Z" id="Path-2-Copy-7" fill="#F5AF92" mask="url(#mask-2)" transform="translate(48.939112, 70.131496) scale(-1, 1) translate(-48.939112, -70.131496) "></path>
        <path d="M97.5042275,59.3471462 C97.5042275,59.3471462 102.943729,58.451229 104.329709,59.0584107 C104.329709,59.0584107 108.656961,60.2975187 108.384571,66.3847907 C108.112181,72.4720626 104.065341,77.7820031 101.23472,79.5926743 C98.4040989,81.4033456 95.8139347,81.4156477 94.5133641,81.4156477 L97.5042275,59.3471462 Z" id="Path-2-Copy-6" fill="#F5AF92" mask="url(#mask-2)"></path>
        <g id="Path-Copy-2" mask="url(#mask-2)">
            <g transform="translate(50.920947, 34.714591)">
                <mask id="mask-6" fill="white">
                    <use xlink:href="#path-5"></use>
                </mask>
                <use id="Mask" stroke="none" fill="#FFD7C5" fill-rule="evenodd" xlink:href="#path-5"></use>
                <path d="M53.708419,16.060069 L19.3023993,11.9025965 C23.8438648,19.5013197 26.3218931,26.6284934 26.7364844,33.2841174 C26.8406638,34.9565569 26.8927535,36.7091529 26.8927535,38.5419055 C26.8927535,51.3150644 24.987735,60.7863061 21.177698,66.9556306 C25.736872,67.4478266 29.9082141,67.0393851 33.6917243,65.730306 C39.3669896,63.7666875 43.4484353,59.1181287 47.1032413,54.0496905 C49.5397787,50.6707317 51.7415046,38.0075246 53.708419,16.060069 Z" id="Path" stroke="none" fill="#FFC4AA" fill-rule="evenodd" mask="url(#mask-6)"></path>
            </g>
        </g>
        <path d="M67.9589877,46.4661614 C71.8277276,54.7202838 79.1745509,61.0272062 89.9994576,65.3869285 C100.481161,69.8831058 100.460787,71.4192646 101.20667,73.2245143 C101.703925,74.4280141 101.952552,72.6040814 101.952552,67.7527162 L72.6358131,33.7473777 L65.0108267,34.3944456 L50.9209471,66.4098771 C55.9165204,62.1387669 59.7288583,58.4816104 62.3579607,55.4384075 C64.9870631,52.3952046 66.8540721,49.4044559 67.9589877,46.4661614 Z" id="Path-11-Copy-2" fill="#F7AC8D" mask="url(#mask-2)"></path>
        <path d="M45.9126231,38.5353562 C50.8867237,28.5005595 56.6840615,23.9514976 63.3046365,24.8881705 C74.4807779,16.84983 86.0782167,17.041752 98.0969529,25.4639365 C113.391799,37.4348553 106.176151,54.9172922 103.519525,69.3982481 C103.393645,70.0844032 103.007332,71.095143 102.360586,72.4304673 C101.474394,68.9912447 99.1760172,66.3530396 95.4654558,64.5158522 C89.8996136,61.7600712 85.5779528,60.3388275 79.5434702,54.8169344 C73.6111189,49.3884973 69.3360029,43.5612262 66.7181221,37.3351211 C66.5808213,41.9226993 64.7685238,46.6256801 61.2812298,51.4440635 C56.0502886,58.6716386 54.214596,60.1681824 51.0518256,64.5158522 C48.943312,67.4142988 47.9372579,70.0525039 48.0336632,72.4304673 C41.6455358,59.8685233 40.9385224,48.5701529 45.9126231,38.5353562 Z" id="Rectangle-Copy-4" fill="#4F2E2C" mask="url(#mask-2)"></path>
    </g>
</svg>
