<?xml version="1.0" encoding="UTF-8"?>
<svg width="64px" height="64px" viewBox="0 0 150 150" version="1.1" xmlns="http://www.w3.org/2000/svg" xmlns:xlink="http://www.w3.org/1999/xlink">
    <!-- Generator: Sketch 53 (72520) - https://sketchapp.com -->
    <title>150/男</title>
    <desc>Created with Sketch.</desc>
    <defs>
        <rect id="path-1" x="0" y="0" width="150" height="150"></rect>
        <path d="M6.90253885,-1.28785871e-14 L28.6612446,-1.28785871e-14 C28.6612446,-1.28785871e-14 28.0599226,4.84186445 29.2611279,9.18146406 C30.4623332,13.5210637 34.4284058,15.625 34.4284058,15.625 C34.4284058,15.625 30.6640625,24.4506836 17.088943,24.4506836 C3.51382342,24.4506836 -9.76996262e-15,15.625 -9.76996262e-15,15.625 C-9.76996262e-15,15.625 5.12734713,13.8582829 6.1111341,9.18146406 C7.09492107,4.50464521 6.90253885,-1.28785871e-14 6.90253885,-1.28785871e-14 Z" id="path-3"></path>
        <path d="M5.68434189e-14,9.29876308 C11.9570989,3.63884955 21.0420332,0.559710687 27.254803,0.0613464934 C33.4675727,-0.4370177 42.1089505,2.10106146 53.1789363,7.67558396 C53.9142329,26.4083877 54.2818812,36.8682018 54.2818812,39.0550262 C54.2818812,39.0550262 54.2818812,39.0550262 54.2818812,39.0550262 L54.2818812,39.0550262 C54.2818812,48.517297 48.620596,57.0613883 39.9068796,60.7499809 C34.1367167,63.1925346 29.8512739,64.4138143 27.0505488,64.4138143 C23.9531127,64.4138143 19.0583736,62.9200609 12.3663316,59.9325541 L12.3663299,59.9325579 C4.84415119,56.5744558 5.78522485e-14,49.10695 5.68434189e-14,40.8692305 C5.68434189e-14,40.8692305 5.68434189e-14,40.8692305 5.68434189e-14,40.8692305 C5.6957941e-14,38.6522521 5.6957941e-14,28.1287629 5.68434189e-14,9.29876308 Z" id="path-5"></path>
    </defs>
    <g id="规范" stroke="none" stroke-width="1" fill="none" fill-rule="evenodd">
        <g id="Artboard" transform="translate(-287.000000, -266.000000)">
            <g id="150/男" transform="translate(287.000000, 266.000000)">
                <mask id="mask-2" fill="white">
                    <use xlink:href="#path-1"></use>
                </mask>
                <use id="Mask" fill="#EFF2FF" fill-rule="evenodd" xlink:href="#path-1"></use>
                <path d="M15.625,150 C15.625,121.875 49.1746902,107.307816 68.2096481,108.485603 L80.4708481,108.485603 C101.156491,108.485603 134.375,121.875 134.375,150 L15.625,150 Z" id="Combined-Shape" fill="#5A96FF" fill-rule="evenodd" mask="url(#mask-2)"></path>
                <g id="Rectangle" stroke-width="1" fill-rule="evenodd" mask="url(#mask-2)">
                    <g transform="translate(56.196594, 93.750000)">
                        <mask id="mask-4" fill="white">
                            <use xlink:href="#path-3"></use>
                        </mask>
                        <use id="Mask" stroke="none" fill="#FDBCA1" fill-rule="evenodd" xlink:href="#path-3"></use>
                        <path d="M5.35163879,-0.982208252 L29.246521,-0.982208252 L29.246521,4.88061925 C25.2802531,9.50859712 21.4197795,11.8225861 17.6651001,11.8225861 C13.9104207,11.8225861 9.80593363,9.50859712 5.35163879,4.88061925 L5.35163879,-0.982208252 Z" id="Rectangle" stroke="none" fill="#FAB497" fill-rule="evenodd" mask="url(#mask-4)"></path>
                    </g>
                </g>
                <path d="M84.375,135.420227 C88.3728027,136.073939 92.0186361,136.400795 95.3125,136.400795 C98.6063639,136.400795 102.252197,136.073939 106.25,135.420227 L106.25,150 L84.375,150 L84.375,135.420227 Z" id="Rectangle" fill="#FFFFFF" fill-rule="evenodd" opacity="0.184477307" mask="url(#mask-2)"></path>
                <path d="M84.375,135.420227 C88.3728027,136.073939 92.0186361,136.400795 95.3125,136.400795 C98.6063639,136.400795 102.252197,136.073939 106.25,135.420227 L106.25,139.408493 C102.604167,140.138117 98.9583333,140.50293 95.3125,140.50293 C91.6666667,140.50293 88.0208333,140.138117 84.375,139.408493 L84.375,135.420227 Z" id="Rectangle-Copy" fill="#FFFFFF" fill-rule="evenodd" mask="url(#mask-2)"></path>
                <g id="Group" stroke-width="1" fill-rule="evenodd" mask="url(#mask-2)">
                    <g transform="translate(37.500000, 15.625000)">
                        <path d="M3.09673469,40.7231764 C3.09673469,40.7231764 8.72878533,39.7968892 10.1638259,40.4246533 C10.1638259,40.4246533 14.6442548,41.705765 14.3622226,47.9993852 C14.0801905,54.2930053 9.89009965,59.7829437 6.95927982,61.6549937 C4.02846,63.5270437 1.3466085,63.5397628 0,63.5397628 L3.09673469,40.7231764 Z" id="Path-2-Copy-2" fill="#F5B499" transform="translate(7.187500, 51.873098) scale(-1, 1) translate(-7.187500, -51.873098) "></path>
                        <path d="M60.5967347,40.7231764 C60.5967347,40.7231764 66.2287853,39.7968892 67.6638259,40.4246533 C67.6638259,40.4246533 72.1442548,41.705765 71.8622226,47.9993852 C71.5801905,54.2930053 67.3900996,59.7829437 64.4592798,61.6549937 C61.52846,63.5270437 58.8466085,63.5397628 57.5,63.5397628 L60.5967347,40.7231764 Z" id="Path-2-Copy-3" fill="#F5B499"></path>
                        <g id="Path" stroke-width="1" fill="none" transform="translate(9.239489, 17.380619)">
                            <mask id="mask-6" fill="white">
                                <use xlink:href="#path-5"></use>
                            </mask>
                            <use id="Mask" fill="#FFD7C5" xlink:href="#path-5"></use>
                            <path d="M55.4480114,30.9592245 C53.9333446,18.7354913 52.3723196,10.9914015 50.7649364,7.72695522 C47.5095006,1.11546691 38.5927729,-1.46018482 24.0147533,8.74078587e-13 C27.9392691,9.95597197 29.901527,20.6916077 29.901527,32.2069072 C29.901527,43.7222067 27.9392691,54.8615709 24.0147533,65.625 C34.9422182,64.8772556 42.7186057,62.5074067 47.3439159,58.5154531 C51.9692261,54.5234996 54.6705913,45.3380901 55.4480114,30.9592245 Z" fill="#FFC4AA" mask="url(#mask-6)"></path>
                        </g>
                        <path d="M14.7489395,29.845547 C16.8565263,28.16181 19.5009232,30.1267573 24.9498367,30.7437897 C30.3987503,31.360822 36.9923096,29.5809916 43.4810638,26.8238566 C49.9698181,24.0667216 52.5003417,29.2469798 54.3365234,31.9435883 C55.5606444,33.7413272 57.804839,37.9466241 61.0691071,44.5594788 L59.010855,26.4611308 L51.8738921,19.4589233 C45.5696217,19.1475084 42.4174865,19.1475084 42.4174865,19.4589233 C42.4174865,19.7703383 34.2613586,20.766059 17.9491027,22.4460856 L14.4202788,24.2248535 C10.4116566,30.1431613 8.4073455,35.4303318 8.4073455,40.0863647 C8.4073455,44.7423977 8.73627424,46.5527344 9.39413174,45.5173747 C11.5589457,36.1919808 13.3438817,30.9680383 14.7489395,29.845547 Z" id="Path-9" fill="#F7AC8D"></path>
                        <path d="M8.8942916,55.0330566 C5.26441344,43.8260177 4.08050424,33.3768814 5.34256402,23.6856479 C6.6046238,13.9944143 10.6049266,9.64979609 17.3434724,10.6517932 C21.4502603,3.55059772 28.5874524,2.13708523e-15 38.7550489,0 C48.6290697,0 58.3055336,2.53470938 67.7844405,7.60412815 C68.5356086,7.99947103 68.6665195,8.75460263 68.68143,9.10956969 C69.1209505,19.5730204 67.7844405,37.0643616 63.5213698,53.125 C63.3840184,54.7990401 62.5543774,54.5337864 62.2960224,51.4322801 C62.0376674,48.3307738 58.5857472,28.7044416 52.8229021,25.0457764 C48.9810054,22.6066662 44.5369826,22.6066662 39.490834,25.0457764 C31.0385317,29.0158425 23.6560778,29.8106341 17.3434724,27.4301511 C15.8458465,26.8740191 14.0811448,27.6754714 13.0677093,30.3359586 C12.0542738,32.9964457 9.6387762,32.4919704 9.6387762,55.0330566 C9.48397637,55.4015082 9.23581484,55.4015082 8.8942916,55.0330566 Z" id="Path-2" fill="#2C314F"></path>
                    </g>
                </g>
            </g>
        </g>
    </g>
</svg>
